<svg width="163" height="22" viewBox="0 0 163 22" fill="none" xmlns="http://www.w3.org/2000/svg">
<path d="M109.197 2.57764H101.428V22.0001H109.197V2.57764Z" fill="#333333"/>
<path d="M127.54 2.57764H119.771V22.0001H127.54V2.57764Z" fill="#333333"/>
<path d="M118.045 2.57764H110.924V22.0001H118.045V2.57764Z" fill="#333333"/>
<path d="M43.1111 13.0449C45.4823 11.7353 45.6696 9.22088 45.6696 8.33909C45.6828 7.13858 45.3493 5.95986 44.7093 4.94505C43.1851 2.54413 40.7638 2.35205 38.2314 2.35205H24.3677V21.2233H31.1395V14.3545H34.717L38.6081 21.2233H46.0397L41.3495 13.6866C42.3098 13.4465 42.656 13.3134 43.1111 13.0449ZM38.5776 9.43479C38.1421 9.94116 37.4889 10.1027 36.2042 10.1027H31.1395V6.63006H36.7377C37.4584 6.63006 38.2053 6.73484 38.6582 7.40492C38.8498 7.68835 38.9522 8.02288 38.9521 8.36528C38.9566 8.75483 38.824 9.13352 38.5776 9.43479Z" fill="#333333"/>
<path d="M54.2294 2.35205L46.0967 21.2233H53.5L54.5125 18.1501H61.7176L62.7301 21.2233H70.0659L61.907 2.35205H54.2294ZM55.9322 13.9834L58.0922 7.59481L60.3045 13.9834H55.9322Z" fill="#333333"/>
<path d="M82.1851 14.1951H87.0909C87.0386 14.4134 86.9842 14.6491 86.9581 14.7015C86.479 15.771 84.6652 17.4822 81.6255 17.4822C79.9467 17.4822 78.1416 16.8929 77.0398 15.5833C75.8401 14.1951 75.7878 12.4315 75.7878 11.8422C75.7878 9.00473 77.3599 7.45723 78.2135 6.84172C79.7072 5.7744 81.4121 5.75039 82 5.75039C84.319 5.75039 85.4839 6.71294 86.1372 7.40921L92.8023 6.68675C92.6647 6.35493 92.5039 6.03328 92.3211 5.7242C91.9783 5.17535 91.5564 4.68033 91.0691 4.25526C90.4974 3.69878 89.8401 3.23817 89.1224 2.8911C86.3767 1.55531 82.5901 1.50293 81.8977 1.50293C76.1928 1.50293 73.1248 3.39966 71.3654 5.29639C69.7077 7.14242 68.8118 9.55097 68.8592 12.0343C68.8592 14.7342 69.7933 16.6309 70.3834 17.4909C70.8944 18.2637 71.5354 18.9417 72.2778 19.4946C75.1302 21.7122 78.4094 21.7929 79.6092 21.7929C82.8079 21.7929 84.6478 21.0443 85.8737 20.3764C86.5054 20.0622 87.082 19.6472 87.5808 19.1476V21.232H93.4185V9.91927H82.1851V14.1951Z" fill="#333333"/>
<path d="M149.768 6.82606V2.50439H130.03V21.7773L149.768 21.7838V17.4185H136.917V14.3322H148.762V9.99092H136.917V6.82606H149.768Z" fill="#333333"/>
<path d="M12.9296 2.43281C12.1827 2.38042 11.4359 2.35205 10.689 2.35205H0V6.84178H9.79848C10.2536 6.84178 12.2524 6.7894 13.6656 7.8589C15.3183 9.14012 15.4075 11.2551 15.4075 11.8423C15.4204 12.7868 15.21 13.721 14.7935 14.5684C14.3406 15.5309 13.5132 16.5743 11.1942 16.8667C10.8052 16.9199 10.4131 16.9468 10.0206 16.9475H6.58457V7.59481H0V21.2233H11.9433C13.8354 21.2233 14.53 21.0902 15.4881 20.8501C16.3227 20.6283 17.127 20.3051 17.8833 19.8875C18.6842 19.4509 19.3986 18.871 19.9911 18.1763C21.9094 15.9326 21.99 12.8594 21.99 12.0038C21.99 10.9888 21.9355 8.58355 20.3373 6.28084C19.2224 4.65039 17.2976 2.81477 12.9296 2.43281Z" fill="#333333"/>
<path d="M156.86 0.984419V0H153V0.984419H154.303V5H155.564V0.984419H156.86Z" fill="#333333"/>
<path d="M162.933 5V0H161.106L160.178 3.49858L159.236 0H157.409V5H158.627L158.528 0.977337L159.633 5H160.716L161.828 0.977337L161.729 5H162.933Z" fill="#333333"/>
</svg>
