<svg width="21" height="20" viewBox="0 0 21 20" fill="none" xmlns="http://www.w3.org/2000/svg">
<path d="M0.984375 19.1007L2.57816 14.6654L16.9222 0.837891L20.1098 3.70776L5.76573 17.7962L0.984375 19.1007Z" fill="#D9D9D9"/>
<path d="M0.984375 19.1007L2.57816 14.6654L16.9222 0.837891L20.1098 3.70776L5.76573 17.7962L0.984375 19.1007Z" fill="black"/>
<path fill-rule="evenodd" clip-rule="evenodd" d="M16.9026 0L21 3.68901L6.08273 18.3405L0 20L2.03755 14.3298L16.9026 0ZM16.9317 1.67655L3.10865 15.0018L1.95863 18.2022L5.4386 17.2527L19.2094 3.72728L16.9317 1.67655Z" fill="black"/>
<path fill-rule="evenodd" clip-rule="evenodd" d="M16.7305 8.58514L12.2304 4.15779L13.1055 3.29688L17.6056 7.72422L16.7305 8.58514Z" fill="white"/>
</svg>
