<svg width="1440" height="418" viewBox="0 0 1440 418" fill="none" xmlns="http://www.w3.org/2000/svg">
<path d="M1126.6 286.352C1132.31 276.25 1139.46 267.032 1147.82 258.986C1177.28 230.655 1215.49 224.653 1237.15 223.738V234.797C1223.31 235.31 1176.96 240.085 1145.66 279.667C1122.3 309.224 1119.87 341.557 1120.53 358.206L1120.38 571.493H1109.46L1109.05 369.516C1108.93 334.117 1114.52 307.696 1126.6 286.352Z" fill="#2C41FB" fill-opacity="0.03"/>
<path d="M1147.99 281.507C1178.42 243.022 1223.49 238.277 1237.1 237.784V249.316C1223.13 250.321 1180.93 256.484 1154.29 292.667C1139.37 312.925 1135.19 334.45 1134.18 348.967V571.454H1123.35L1123.5 358.116C1122.87 341.829 1125.22 310.301 1147.99 281.507Z" fill="#2C41FB" fill-opacity="0.03"/>
<path d="M1137.92 248.782C1168.27 218.852 1207.89 210.347 1237.2 208.708V220.772C1215.08 221.687 1176 227.81 1145.77 256.865C1137.2 265.11 1129.87 274.559 1124.02 284.915C1111.66 306.741 1105.92 333.624 1106.02 369.536L1106.43 571.524H1095.6L1095.16 360.508C1094.99 296.466 1116.23 270.196 1137.92 248.782Z" fill="#2C41FB" fill-opacity="0.03"/>
<path d="M1135.8 246.631C1113.62 268.497 1091.98 295.31 1092.11 360.468L1092.54 571.484H1068.19L1068.03 352.315C1067.63 332.76 1070.81 268.166 1125.27 220.461C1167.87 183.142 1217.13 179 1236.87 179H1237.33V189.707C1218.06 189.868 1167.08 194.533 1125.44 235.793C1081.56 279.275 1078.27 333.685 1078.31 349.319L1078.77 571.383H1081.78L1081.33 349.329C1081.33 333.977 1084.52 280.602 1127.58 237.944C1168.39 197.499 1218.4 192.894 1237.33 192.703V205.622C1207.35 207.301 1166.89 215.987 1135.8 246.631Z" fill="#2C41FB" fill-opacity="0.03"/>
<path d="M110.731 353.352C105.019 343.25 97.8703 334.032 89.5077 325.986C60.0506 297.655 21.8367 291.653 0.181152 290.738V301.797C14.025 302.31 60.3723 307.085 91.6692 346.667C115.034 376.224 117.457 408.557 116.803 425.206L116.954 638.493H127.872L128.285 436.516C128.405 401.117 122.815 374.696 110.731 353.352Z" fill="#2C41FB" fill-opacity="0.03"/>
<path d="M89.3464 348.507C58.914 310.022 13.8436 305.277 0.230957 304.784V316.316C14.2055 317.321 56.4006 323.484 83.0428 359.667C97.9624 379.925 102.145 401.45 103.15 415.967V638.454H113.978L113.827 425.116C114.46 408.829 112.108 377.301 89.3464 348.507Z" fill="#2C41FB" fill-opacity="0.03"/>
<path d="M99.41 315.782C69.0581 285.852 29.4367 277.347 0.130371 275.708V287.772C22.2484 288.687 61.3268 294.81 91.5581 323.865C100.132 332.11 107.461 341.559 113.314 351.915C125.67 373.741 131.411 400.624 131.31 436.536L130.898 638.524H141.736L142.168 427.508C142.339 363.466 121.106 337.196 99.41 315.782Z" fill="#2C41FB" fill-opacity="0.03"/>
<path d="M101.532 313.631C123.71 335.497 145.355 362.31 145.225 427.468L144.792 638.484H169.142L169.303 419.315C169.705 399.76 166.518 335.166 112.058 287.461C69.4606 250.142 20.1977 246 0.462459 246H0V256.707C19.2728 256.868 70.2548 261.533 111.887 302.793C155.771 346.275 159.059 400.685 159.018 416.319L158.566 638.383H155.55L156.002 416.329C156.002 400.977 152.815 347.602 109.756 304.944C68.9378 264.499 18.931 259.894 0 259.703V272.622C29.9799 274.301 70.4458 282.987 101.532 313.631Z" fill="#2C41FB" fill-opacity="0.03"/>
<path d="M1329.6 73.1711C1335.31 83.273 1342.46 92.4913 1350.82 100.537C1380.28 128.868 1418.49 134.87 1440.15 135.785L1440.15 124.726C1426.31 124.213 1379.96 119.438 1348.66 79.8568C1325.3 50.2991 1322.87 17.9666 1323.53 1.3178L1323.38 -211.97L1312.46 -211.97L1312.05 -9.99253C1311.93 25.4063 1317.52 51.8272 1329.6 73.1711Z" fill="#2C41FB" fill-opacity="0.03"/>
<path d="M1350.99 78.016C1381.42 116.501 1426.49 121.247 1440.1 121.739L1440.1 110.208C1426.13 109.202 1383.93 103.04 1357.29 66.8565C1342.37 46.5984 1338.19 25.0736 1337.18 10.5561L1337.18 -211.931L1326.35 -211.931L1326.5 1.40728C1325.87 17.6942 1328.22 49.2224 1350.99 78.016Z" fill="#2C41FB" fill-opacity="0.03"/>
<path d="M1340.92 110.742C1371.27 140.671 1410.89 149.177 1440.2 150.815L1440.2 138.751C1418.08 137.836 1379 131.714 1348.77 102.659C1340.2 94.4131 1332.87 84.9642 1327.02 74.6088C1314.66 52.7824 1308.92 25.899 1309.02 -10.0126L1309.43 -212L1298.6 -212L1298.16 -0.984446C1297.99 63.0572 1319.23 89.3274 1340.92 110.742Z" fill="#2C41FB" fill-opacity="0.03"/>
<path d="M1338.8 112.893C1316.62 91.026 1294.98 64.2129 1295.11 -0.944682L1295.54 -211.96L1271.19 -211.96L1271.03 7.2088C1270.63 26.7631 1273.81 91.3577 1328.27 139.062C1370.87 176.381 1420.13 180.523 1439.87 180.523L1440.33 180.523L1440.33 169.816C1421.06 169.655 1370.08 164.991 1328.44 123.73C1284.56 80.2485 1281.27 25.8382 1281.31 10.2048L1281.77 -211.86L1284.78 -211.86L1284.33 10.1947C1284.33 25.5466 1287.52 78.9214 1330.58 121.579C1371.39 162.025 1421.4 166.629 1440.33 166.82L1440.33 153.901C1410.35 152.222 1369.89 143.536 1338.8 112.893Z" fill="#2C41FB" fill-opacity="0.03"/>
<path d="M1351.73 285.352C1346.02 275.25 1338.87 266.032 1330.51 257.986C1301.05 229.655 1262.84 223.653 1241.18 222.738V233.797C1255.03 234.31 1301.37 239.085 1332.67 278.667C1356.03 308.224 1358.46 340.557 1357.8 357.206L1357.95 570.493H1368.87L1369.28 368.516C1369.41 333.117 1363.82 306.696 1351.73 285.352Z" fill="#2C41FB" fill-opacity="0.03"/>
<path d="M1330.35 280.507C1299.91 242.022 1254.84 237.277 1241.23 236.784V248.316C1255.21 249.321 1297.4 255.484 1324.04 291.667C1338.96 311.925 1343.14 333.45 1344.15 347.967V570.454H1354.98L1354.83 357.116C1355.46 340.829 1353.11 309.301 1330.35 280.507Z" fill="#2C41FB" fill-opacity="0.03"/>
<path d="M1340.41 247.782C1310.06 217.852 1270.44 209.347 1241.13 207.708V219.772C1263.25 220.687 1302.33 226.81 1332.56 255.865C1341.13 264.11 1348.46 273.559 1354.31 283.915C1366.67 305.741 1372.41 332.624 1372.31 368.536L1371.9 570.524H1382.74L1383.17 359.508C1383.34 295.466 1362.11 269.196 1340.41 247.782Z" fill="#2C41FB" fill-opacity="0.03"/>
<path d="M1342.53 245.631C1364.71 267.497 1386.36 294.31 1386.22 359.468L1385.79 570.484H1410.14L1410.3 351.315C1410.71 331.76 1407.52 267.166 1353.06 219.461C1310.46 182.142 1261.2 178 1241.46 178H1241V188.707C1260.27 188.868 1311.25 193.533 1352.89 234.793C1396.77 278.275 1400.06 332.685 1400.02 348.319L1399.57 570.383H1396.55L1397 348.329C1397 332.977 1393.82 279.602 1350.76 236.944C1309.94 196.499 1259.93 191.894 1241 191.703V204.622C1270.98 206.301 1311.45 214.987 1342.53 245.631Z" fill="#2C41FB" fill-opacity="0.03"/>
<path d="M186.601 285.172C192.312 295.274 199.461 304.492 207.824 312.538C237.281 340.869 275.495 346.871 297.15 347.786V336.727C283.307 336.214 236.959 331.439 205.662 291.858C182.298 262.3 179.875 229.968 180.528 213.319L180.377 0.0309143H169.459L169.047 202.008C168.926 237.407 174.516 263.828 186.601 285.172Z" fill="#2C41FB" fill-opacity="0.03"/>
<path d="M207.985 290.017C238.418 328.502 283.488 333.248 297.101 333.74V322.209C283.126 321.203 240.931 315.041 214.289 278.857C199.369 258.599 195.187 237.075 194.182 222.557V0.0701294H183.354L183.505 213.408C182.871 229.695 185.224 261.223 207.985 290.017Z" fill="#2C41FB" fill-opacity="0.03"/>
<path d="M197.922 322.743C228.273 352.672 267.895 361.178 297.201 362.816V350.752C275.083 349.837 236.005 343.715 205.773 314.66C197.2 306.414 189.871 296.965 184.017 286.61C171.661 264.783 165.921 237.9 166.021 201.988L166.434 0.000793457H155.596L155.163 211.017C154.992 275.058 176.226 301.328 197.922 322.743Z" fill="#2C41FB" fill-opacity="0.03"/>
<path d="M195.8 324.894C173.622 303.027 151.976 276.214 152.107 211.056L152.539 0.0405273H128.189L128.028 219.21C127.626 238.764 130.813 303.359 185.274 351.063C227.871 388.382 277.134 392.524 296.869 392.524H297.332V381.817C278.059 381.656 227.077 376.992 185.445 335.731C141.561 292.249 138.273 237.839 138.313 222.206L138.766 0.141052H141.782L141.329 222.196C141.329 237.548 144.516 290.922 187.576 333.58C228.394 374.026 278.401 378.63 297.332 378.821V365.902C267.352 364.223 226.886 355.537 195.8 324.894Z" fill="#2C41FB" fill-opacity="0.03"/>
<path d="M411.731 285.172C406.019 295.274 398.87 304.492 390.508 312.538C361.051 340.869 322.837 346.871 301.181 347.786V336.727C315.025 336.214 361.372 331.439 392.669 291.858C416.034 262.3 418.457 229.968 417.803 213.319L417.954 0.0309143H428.872L429.285 202.008C429.405 237.407 423.815 263.828 411.731 285.172Z" fill="#2C41FB" fill-opacity="0.03"/>
<path d="M390.346 290.017C359.914 328.502 314.844 333.248 301.231 333.74V322.209C315.206 321.203 357.401 315.041 384.043 278.857C398.962 258.599 403.145 237.075 404.15 222.557V0.0701294H414.978L414.827 213.408C415.46 229.695 413.108 261.223 390.346 290.017Z" fill="#2C41FB" fill-opacity="0.03"/>
<path d="M400.41 322.743C370.058 352.672 330.437 361.178 301.13 362.816V350.752C323.248 349.837 362.327 343.715 392.558 314.66C401.132 306.414 408.461 296.965 414.314 286.61C426.67 264.783 432.411 237.9 432.31 201.988L431.898 0.000793457H442.736L443.168 211.017C443.339 275.058 422.106 301.328 400.41 322.743Z" fill="#2C41FB" fill-opacity="0.03"/>
<path d="M402.532 324.894C424.71 303.027 446.355 276.214 446.225 211.056L445.792 0.0405273H470.142L470.303 219.21C470.705 238.764 467.518 303.359 413.058 351.063C370.461 388.382 321.198 392.524 301.462 392.524H301V381.817C320.273 381.656 371.255 376.992 412.887 335.731C456.771 292.249 460.059 237.839 460.018 222.206L459.566 0.141052H456.55L457.002 222.196C457.002 237.548 453.815 290.922 410.756 333.58C369.938 374.026 319.931 378.63 301 378.821V365.902C330.98 364.223 371.446 355.537 402.532 324.894Z" fill="#2C41FB" fill-opacity="0.03"/>
</svg>
